<?xml version="1.0" encoding="UTF-8" standalone="no"?>
<!-- Created with Inkscape (http://www.inkscape.org/) -->

<svg
   width="20.552561mm"
   height="26.52862mm"
   viewBox="0 0 20.552561 26.52862"
   version="1.1"
   id="svg1"
   inkscape:version="1.3.2 (091e20ef0f, 2023-11-25, custom)"
   sodipodi:docname="zZ.svg"
   inkscape:export-filename="logo.png"
   inkscape:export-xdpi="96"
   inkscape:export-ydpi="96"
   xmlns:inkscape="http://www.inkscape.org/namespaces/inkscape"
   xmlns:sodipodi="http://sodipodi.sourceforge.net/DTD/sodipodi-0.dtd"
   xmlns="http://www.w3.org/2000/svg"
   xmlns:svg="http://www.w3.org/2000/svg">
  <sodipodi:namedview
     id="namedview1"
     pagecolor="#505050"
     bordercolor="#eeeeee"
     borderopacity="1"
     inkscape:showpageshadow="0"
     inkscape:pageopacity="0"
     inkscape:pagecheckerboard="0"
     inkscape:deskcolor="#505050"
     inkscape:document-units="mm"
     inkscape:zoom="4.4145367"
     inkscape:cx="51.874074"
     inkscape:cy="22.652434"
     inkscape:window-width="1920"
     inkscape:window-height="1056"
     inkscape:window-x="0"
     inkscape:window-y="0"
     inkscape:window-maximized="1"
     inkscape:current-layer="layer1" />
  <defs
     id="defs1" />
  <g
     inkscape:label="Layer 1"
     inkscape:groupmode="layer"
     id="layer1"
     transform="translate(-95.267535,-117.53495)">
    <path
       style="fill:#f2c902;fill-opacity:1;stroke-width:0.264583"
       d="m 107.69467,134.81141 4.1918,-4.10518 -6.67245,-0.50849 9.93429,-12.66279 -8.80566,0.5209 -8.172965,16.70595 6.077155,-1.62471 -4.2292,6.08956 z"
       id="path21" />
    <path
       style="font-size:25.4px;font-family:Kristi;-inkscape-font-specification:Kristi;fill:#f07126;fill-opacity:1;stroke-width:0.264583"
       d="m 113.80886,118.63876 -5.30821,0.19844 q -0.33486,0 -0.71933,-0.0496 -1.43867,-0.21084 -1.43867,-0.73174 0,-0.18604 0.37207,-0.21084 h 0.0248 l 2.46807,-0.19844 q 1.95957,-0.11162 3.50986,-0.11162 h 2.43086 q 0.40928,0 0.62012,0.5333 0.062,0.16123 0.0496,0.32246 -0.0124,0.14883 -0.5085,0.19844 -0.14883,0.21084 -0.38447,0.47129 l -9.71104,11.1373 q 0.71934,-0.0496 2.55489,-0.21084 1.82314,-0.16123 2.24482,-0.17363 1.66191,-0.0496 1.94717,0.5209 0.062,0.0992 0.062,0.18603 0.0124,0.14883 -0.13643,0.18604 -0.14882,0.0248 -0.24804,0.0372 l -2.0836,0.28525 q -1.90996,0.18604 -3.2122,0.23565 -1.30225,0.0372 -2.0712,0.0744 -0.27285,0.29765 -0.70693,0.29765 -0.43408,0 -0.47129,-0.31006 -0.0496,-0.31005 0.0372,-0.52089 0.0868,-0.22325 0.64492,-0.85577 z"
       id="path16" />
    <path
       style="font-size:25.4px;font-family:Kristi;-inkscape-font-specification:Kristi;fill:#e6173e;fill-opacity:1;stroke-width:0.264583"
       d="m 103.16784,133.90604 q -0.0496,0.0124 -0.32246,0.13643 -2.852545,1.22783 -3.683505,1.22783 -0.45889,0 -0.71933,-0.18604 -0.26045,-0.19843 -0.27286,-0.32246 0.0248,-0.16123 0.47129,-0.29765 0.48369,-0.16123 1.897565,-0.66973 2.53008,-0.91777 2.92695,-0.91777 0.42168,0 0.78135,0.26045 0.37207,0.26044 0.37207,0.52089 0,0.24805 -0.39687,0.74414 -0.38448,0.4961 -2.05879,2.34405 -1.67432,1.84795 -2.14561,2.48047 l 7.57783,-4.36563 q 0.0868,-0.0496 0.0992,-0.0496 0.19844,0.062 0.21084,0.38447 0.0248,0.33487 -0.0496,0.38448 -0.29765,0.19843 -0.58291,0.35966 l -1.68672,1.0542 q -3.7207,2.30684 -5.655465,3.74551 -1.92237,1.43867 -3.54707,3.19981 -0.13643,0.12402 -0.26045,0.12402 -0.35967,0 -0.60772,-0.37207 -0.24804,-0.37207 -0.24804,-0.5457 0,-0.16123 0.062,-0.24805 1.01699,-1.24023 4.31601,-4.98574 z"
       id="path15" />
    <path
       id="path23"
       style="fill:#fadc7a;fill-opacity:1;stroke-width:0.264583"
       d="m 109.26049,119.05646 c -0.32247,0.008 -0.80617,0.35967 -1.45109,1.0542 -0.64493,0.69453 -0.99631,1.14928 -1.05419,1.36426 -0.10748,0.21497 -0.0165,0.49609 0.27285,0.84336 0.3638,0.41341 0.64906,0.51676 0.85577,0.31005 0.0827,-0.16536 0.43407,-0.66145 1.05419,-1.48828 0.62012,-0.82682 0.93018,-1.35185 0.93018,-1.57509 0,-0.0661 -0.0992,-0.1695 -0.29766,-0.31006 -0.16538,-0.11576 -0.26873,-0.18191 -0.31005,-0.19844 z m -2.95331,3.51141 c -0.10346,0.006 -0.1972,0.0287 -0.28061,0.0677 -0.25535,0.36476 -0.82646,1.19966 -1.71308,2.50528 -0.88382,1.29784 -1.68086,2.41653 -2.39055,3.35535 1.85197,-0.91171 3.37905,-2.09075 4.5806,-3.53725 0.45085,-0.54015 0.81421,-1.08158 1.08986,-1.62368 -0.0808,-0.31073 -0.30929,-0.52987 -0.68523,-0.65732 -0.18267,-0.0662 -0.34761,-0.10298 -0.49455,-0.11007 -0.0367,-0.002 -0.072,-0.002 -0.10645,0 z m -2.50372,5.46169 c -1.23352,0.70768 -2.24754,1.61614 -3.0422,2.72593 -0.29819,0.41442 -0.53789,0.82874 -0.71881,1.24333 0.0562,0.23586 0.21057,0.40089 0.46302,0.49506 0.24541,0.098 0.44249,0.1067 0.59066,0.0258 0.16849,-0.27949 0.54484,-0.91906 1.12964,-1.91926 0.58296,-0.99427 1.10888,-1.85116 1.57769,-2.5709 z m 3.17292,3.79615 c -0.0799,0.004 -0.15245,0.0382 -0.21704,0.10283 -0.0827,0.16537 -0.43409,0.66146 -1.05419,1.48828 -0.62012,0.82682 -0.93019,1.35186 -0.93019,1.5751 0,0.0661 0.0992,0.1695 0.29766,0.31006 0.16537,0.11576 0.26873,0.1819 0.31006,0.19844 0.32247,-0.008 0.80615,-0.35967 1.45107,-1.0542 0.64495,-0.69453 0.99635,-1.14929 1.0542,-1.36426 0.10749,-0.21497 0.0165,-0.4961 -0.27285,-0.84336 -0.25011,-0.28422 -0.46286,-0.42178 -0.63872,-0.41289 z" />
  </g>
</svg>
