<?xml version="1.0" encoding="UTF-8" standalone="no"?>
<!-- Created with Inkscape (http://www.inkscape.org/) -->

<svg
   width="116.8724mm"
   height="62.005573mm"
   viewBox="0 0 116.8724 62.005573"
   version="1.1"
   id="svg1"
   inkscape:version="1.3.2 (091e20ef0f, 2023-11-25, custom)"
   sodipodi:docname="sketch.svg"
   xmlns:inkscape="http://www.inkscape.org/namespaces/inkscape"
   xmlns:sodipodi="http://sodipodi.sourceforge.net/DTD/sodipodi-0.dtd"
   xmlns="http://www.w3.org/2000/svg"
   xmlns:svg="http://www.w3.org/2000/svg">
  <sodipodi:namedview
     id="namedview1"
     pagecolor="#505050"
     bordercolor="#eeeeee"
     borderopacity="1"
     inkscape:showpageshadow="0"
     inkscape:pageopacity="0"
     inkscape:pagecheckerboard="0"
     inkscape:deskcolor="#505050"
     inkscape:document-units="mm"
     inkscape:zoom="1.5607744"
     inkscape:cx="307.85999"
     inkscape:cy="133.90788"
     inkscape:window-width="1920"
     inkscape:window-height="1056"
     inkscape:window-x="0"
     inkscape:window-y="0"
     inkscape:window-maximized="1"
     inkscape:current-layer="layer1" />
  <defs
     id="defs1" />
  <g
     inkscape:label="Layer 1"
     inkscape:groupmode="layer"
     id="layer1"
     transform="translate(-39.556812,-21.336704)">
    <path
       style="fill:#f2c902;fill-opacity:1;stroke-width:0.264583"
       d="m 117.51335,74.090127 4.1918,-4.105175 -6.67245,-0.508494 9.93429,-12.662792 -8.80566,0.520896 -8.17296,16.705958 6.07715,-1.624708 -4.2292,6.089552 z"
       id="path21" />
    <rect
       style="fill:#e6173e;fill-opacity:1;stroke-width:0.264583"
       id="rect1"
       width="23.374479"
       height="24.333433"
       x="39.556812"
       y="21.336704" />
    <rect
       style="fill:#1f1c1f;fill-opacity:1;stroke-width:0.264583"
       id="rect1-6"
       width="23.374479"
       height="24.333433"
       x="62.93129"
       y="21.336704" />
    <rect
       style="fill:#fadc7a;fill-opacity:1;stroke-width:0.264583"
       id="rect2"
       width="23.374479"
       height="24.333433"
       x="86.305771"
       y="21.336704" />
    <rect
       style="fill:#f2c902;fill-opacity:1;stroke-width:0.264583"
       id="rect3"
       width="23.374479"
       height="24.333433"
       x="109.68025"
       y="21.336704" />
    <rect
       style="fill:#f07126;fill-opacity:1;stroke-width:0.264583"
       id="rect4"
       width="23.374479"
       height="24.333433"
       x="133.05473"
       y="21.336704" />
    <path
       id="path20"
       style="font-size:25.4px;font-family:Kristi;-inkscape-font-specification:Kristi;fill:#f2c902;fill-opacity:1;stroke-width:0.264583"
       d="m 136.03794,55.064934 -0.47129,0.06201 c 0,0.0083 -0.008,0.0124 -0.0248,0.0124 -0.1819,0.04961 -0.34314,0.243913 -0.4837,0.58291 -0.14056,0.330729 -0.50849,1.732197 -1.1038,4.204394 l -1.42627,5.816699 c -0.90951,3.621482 -1.88516,6.060614 -2.92696,7.317384 -0.58704,0.677994 -1.19889,1.095541 -1.83554,1.252636 0,0.0083 -0.0538,0.0248 -0.16123,0.04961 -0.10749,0.02481 -0.1571,0.05374 -0.14883,0.08682 0,0.04134 0.0248,0.09922 0.0744,0.173632 0.0413,0.07441 0.24805,0.111621 0.62012,0.111621 0.36381,0 0.87644,-0.219109 1.53789,-0.657325 0.65319,-0.429947 1.22783,-1.029394 1.72393,-1.798339 0.84335,-1.306379 1.63711,-3.485062 2.38125,-6.536035 0.30592,-0.0083 0.68626,-0.210841 1.14101,-0.607714 0.81856,-0.727604 1.64125,-1.872757 2.46807,-3.435451 0.83509,-1.570961 1.25263,-2.935222 1.25263,-4.092773 0,-0.256315 -0.0703,-0.483692 -0.21084,-0.682129 -0.32246,-0.429947 -0.90123,-0.644922 -1.73632,-0.644922 -0.19017,0 -0.33487,0.0083 -0.43409,0.02481 0,-0.08268 0.0331,-0.26045 0.0992,-0.533301 0.0661,-0.28112 0.0951,-0.442351 0.0868,-0.483691 -0.0331,-0.148828 -0.17363,-0.223242 -0.42168,-0.223242 z m 0.64492,2.282032 c 0.39687,-0.0083 0.68627,0.119889 0.86817,0.384472 -0.0744,0.603581 -0.23151,1.236102 -0.47129,1.897559 -0.63666,1.7694 -1.67018,3.398244 -3.10059,4.886523 0.34727,-1.124477 0.7152,-2.447396 1.10381,-3.96875 0.38861,-1.52962 0.64078,-2.509408 0.75654,-2.939355 0.17363,-0.173633 0.45475,-0.260449 0.84336,-0.260449 z" />
    <path
       id="path17"
       style="font-size:25.4px;font-family:Kristi;-inkscape-font-specification:Kristi;fill:#f2c902;fill-opacity:1;stroke-width:0.264583"
       d="m 129.51431,54.903703 c -0.25633,0 -0.41756,0.148829 -0.48369,0.446484 l -0.79375,3.410645 -2.76573,4.588867 c -0.8599,0.06615 -1.96784,0.165365 -3.32383,0.297656 -0.1819,0.03307 -0.27285,0.111622 -0.27285,0.235646 0,0.272851 0.1447,0.471289 0.43408,0.595312 0.28939,0.124026 1.06661,0.190171 2.33165,0.198438 l -2.76573,4.34082 c -0.0413,0.04961 -0.1819,0.25218 -0.42168,0.607715 -0.23978,0.355534 -0.35966,0.603581 -0.35966,0.744141 0.0165,0.13229 0.12815,0.198437 0.33486,0.198437 0.19844,0.0083 0.3514,-0.03721 0.45889,-0.136427 1.39733,-1.628838 2.75332,-3.547072 4.06796,-5.754687 0.39688,-0.01654 0.97565,-0.07028 1.73633,-0.161231 -0.47956,1.868619 -0.76894,3.158464 -0.86816,3.869533 -0.091,0.711066 -0.13643,1.405598 -0.13643,2.083592 0,0.686263 0.18604,1.190626 0.55811,1.513086 0.1571,0.132293 0.33487,0.198438 0.5333,0.198438 0.3638,0 0.5457,-0.26045 0.5457,-0.781348 -0.008,-0.173631 -0.1323,-0.355534 -0.37207,-0.545703 -0.23979,-0.23151 -0.36794,-0.413411 -0.38447,-0.545703 0,-0.504362 0.44648,-2.480472 1.33945,-5.92832 0.98392,-0.09095 1.81488,-0.144691 2.49287,-0.161231 0.678,-0.0248 1.02113,-0.124024 1.0294,-0.297656 -0.008,-0.256315 -0.0662,-0.458887 -0.17364,-0.607715 -0.10748,-0.157098 -0.20257,-0.23978 -0.28525,-0.248047 -1.13275,0 -2.04226,0.01654 -2.72851,0.04961 0.66145,-2.422589 1.12861,-4.241603 1.40146,-5.457032 0.27285,-1.215426 0.40928,-1.852081 0.40928,-1.909961 0,-0.396874 -0.28939,-0.661458 -0.86817,-0.79375 -0.19017,-0.04134 -0.41341,-0.05788 -0.66972,-0.04961 z m -1.22525,6.324162 c 0.0476,-0.0014 0.0757,0.03592 0.0842,0.112654 -0.0744,0.520899 -0.19017,1.132749 -0.34726,1.835547 l -1.26504,0.08682 0.24804,-0.458887 c 0.1819,-0.330729 0.44649,-0.711068 0.79375,-1.141016 0.23333,-0.287579 0.39539,-0.432402 0.48628,-0.435115 z" />
    <path
       style="font-size:25.4px;font-family:Kristi;-inkscape-font-specification:Kristi;fill:#f07126;fill-opacity:1;stroke-width:0.264583"
       d="m 123.62754,57.917474 -5.30821,0.198438 q -0.33486,0 -0.71933,-0.04961 -1.43867,-0.21084 -1.43867,-0.731738 0,-0.186035 0.37207,-0.21084 h 0.0248 l 2.46807,-0.198437 q 1.95957,-0.111621 3.50986,-0.111621 h 2.43086 q 0.40928,0 0.62012,0.5333 0.062,0.161231 0.0496,0.322461 -0.0124,0.148828 -0.5085,0.198438 -0.14883,0.21084 -0.38447,0.471289 l -9.71104,11.137304 q 0.71934,-0.04961 2.55489,-0.21084 1.82314,-0.16123 2.24482,-0.173632 1.66191,-0.04961 1.94717,0.520898 0.062,0.09922 0.062,0.186035 0.0124,0.148828 -0.13643,0.186035 -0.14882,0.02481 -0.24804,0.03721 l -2.0836,0.285254 q -1.90996,0.186035 -3.2122,0.235645 -1.30225,0.03721 -2.0712,0.07441 -0.27285,0.297656 -0.70693,0.297656 -0.43408,0 -0.47129,-0.310058 -0.0496,-0.310059 0.0372,-0.520899 0.0868,-0.223242 0.64492,-0.855762 z"
       id="path16" />
    <path
       style="font-size:25.4px;font-family:Kristi;-inkscape-font-specification:Kristi;fill:#e6173e;fill-opacity:1;stroke-width:0.264583"
       d="m 112.98652,73.184758 q -0.0496,0.0124 -0.32246,0.136426 -2.85254,1.227832 -3.6835,1.227832 -0.45889,0 -0.71933,-0.186035 -0.26045,-0.198438 -0.27286,-0.322461 0.0248,-0.161231 0.47129,-0.297656 0.48369,-0.161231 1.89756,-0.669727 2.53008,-0.917773 2.92695,-0.917773 0.42168,0 0.78135,0.260449 0.37207,0.260449 0.37207,0.520898 0,0.248047 -0.39687,0.744141 -0.38448,0.496094 -2.05879,2.344043 -1.67432,1.847949 -2.14561,2.480469 l 7.57783,-4.365625 q 0.0868,-0.04961 0.0992,-0.04961 0.19844,0.06201 0.21084,0.384473 0.0248,0.334863 -0.0496,0.384473 -0.29765,0.198437 -0.58291,0.359667 l -1.68672,1.0542 q -3.7207,2.306836 -5.65546,3.745507 -1.92237,1.438672 -3.54707,3.199805 -0.13643,0.124024 -0.26045,0.124024 -0.35967,0 -0.60772,-0.372071 -0.24804,-0.37207 -0.24804,-0.545703 0,-0.16123 0.062,-0.248047 1.01699,-1.240234 4.31601,-4.985742 z"
       id="path15" />
    <path
       style="font-size:25.4px;font-family:Kristi;-inkscape-font-specification:Kristi;fill:#f2c902;fill-opacity:1;stroke-width:0.264583"
       d="m 110.28281,71.113567 q -0.45889,1.289844 -1.82315,2.629297 -1.6123,1.5875 -2.70371,1.5875 -1.47588,0 -1.84795,-1.674317 -0.11161,-0.508496 -0.11161,-1.103808 -0.0124,-1.922363 0.73173,-4.452441 0.93018,-3.199805 1.76113,-3.199805 0.40928,0 0.59532,0.198437 0.19843,0.186036 0.19843,0.272852 0,0.396875 -0.80615,1.95957 -0.80615,1.550293 -1.00459,2.257227 -0.18603,0.694531 -0.28525,1.823144 -0.0868,1.116211 -0.0868,1.438672 0,1.091406 0.26045,1.364258 0.27285,0.272851 0.65732,0.285254 1.09141,0 2.6045,-1.897559 0.73173,-0.930176 1.14101,-1.711523 0.18604,-0.297656 0.38447,-0.297656 0.33487,0.04961 0.37208,0.334863 0,0.03721 -0.0372,0.186035 z"
       id="path14" />
    <path
       style="font-size:25.4px;font-family:Kristi;-inkscape-font-specification:Kristi;fill:#f2c902;fill-opacity:1;stroke-width:0.264583"
       d="m 107.31865,63.324895 q -0.062,-0.0248 -0.31006,-0.198437 -0.29766,-0.21084 -0.29766,-0.310059 0,-0.334863 0.93018,-1.575097 0.93017,-1.240235 1.0542,-1.488282 0.31006,-0.310058 0.85576,0.310059 0.43408,0.520898 0.27285,0.843359 -0.0868,0.322461 -1.0542,1.364258 -0.96738,1.041797 -1.45107,1.054199 z"
       id="path13" />
    <path
       id="path12"
       style="font-size:25.4px;font-family:Kristi;-inkscape-font-specification:Kristi;fill:#f2c902;fill-opacity:1;stroke-width:0.264583"
       d="m 101.21657,60.447474 -0.47129,0.06201 c 0,0.0083 -0.008,0.0124 -0.0248,0.0124 -0.1819,0.04961 -0.34313,0.243913 -0.48369,0.58291 -0.14056,0.330729 -0.5085,1.732197 -1.10381,4.204394 l -1.42627,5.816699 c -0.9095,3.621482 -1.885155,6.060614 -2.926951,7.317383 -0.587044,0.677994 -1.198894,1.095541 -1.835547,1.252637 0,0.0083 -0.05374,0.0248 -0.16123,0.04961 -0.107486,0.02481 -0.157095,0.05374 -0.148829,0.08682 0,0.04134 0.02481,0.09922 0.07442,0.173633 0.04134,0.07441 0.248046,0.111621 0.620117,0.111621 0.363801,0 0.876433,-0.219109 1.53789,-0.657325 0.65319,-0.429947 1.227833,-1.029395 1.723925,-1.798339 0.84336,-1.306379 1.63711,-3.485062 2.38125,-6.536036 0.30593,-0.0083 0.68627,-0.21084 1.141015,-0.607714 0.81855,-0.727604 1.64124,-1.872756 2.46806,-3.43545 0.8351,-1.570961 1.25264,-2.935222 1.25264,-4.092773 0,-0.256315 -0.0703,-0.483692 -0.21084,-0.682129 -0.32246,-0.429947 -0.90124,-0.644922 -1.73633,-0.644922 -0.19017,0 -0.33486,0.0083 -0.43408,0.02481 0,-0.08268 0.0331,-0.26045 0.0992,-0.533301 0.0662,-0.28112 0.0951,-0.442351 0.0868,-0.483691 -0.0331,-0.148828 -0.17364,-0.223242 -0.42168,-0.223242 z m 0.64492,2.282031 c 0.39687,-0.0083 0.68626,0.119889 0.86816,0.384472 -0.0744,0.603581 -0.23151,1.236102 -0.47129,1.897559 -0.63665,1.7694 -1.67018,3.398244 -3.10058,4.886523 0.34726,-1.124477 0.7152,-2.447396 1.10381,-3.96875 0.3886,-1.52962 0.64078,-2.509407 0.75654,-2.939355 0.17363,-0.173633 0.45475,-0.260449 0.84336,-0.260449 z" />
    <path
       id="path23"
       style="fill:#fadc7a;fill-opacity:1;stroke-width:0.264583"
       d="m 119.07917,58.335177 c -0.32247,0.0083 -0.80617,0.359669 -1.45109,1.054199 -0.64493,0.694529 -0.99631,1.149284 -1.05419,1.364258 -0.10748,0.214973 -0.0165,0.496094 0.27285,0.843359 0.3638,0.413411 0.64906,0.516763 0.85577,0.310059 0.0827,-0.165365 0.43407,-0.661459 1.05419,-1.488282 0.62012,-0.82682 0.93018,-1.351856 0.93018,-1.575097 0,-0.06615 -0.0992,-0.169499 -0.29766,-0.310059 -0.16538,-0.115758 -0.26873,-0.181904 -0.31005,-0.198437 z m -2.95331,3.511413 c -0.10346,0.0058 -0.1972,0.02867 -0.28061,0.0677 -0.25535,0.364759 -0.82646,1.199659 -1.71308,2.505274 -0.88382,1.29784 -1.68086,2.416536 -2.39055,3.355351 1.85197,-0.911708 3.37905,-2.090748 4.5806,-3.537252 0.45085,-0.540144 0.81421,-1.081581 1.08986,-1.623674 -0.0808,-0.310733 -0.30929,-0.529875 -0.68523,-0.657324 -0.18267,-0.06622 -0.34761,-0.102979 -0.49455,-0.110071 -0.0367,-0.0018 -0.072,-0.0019 -0.10645,0 z m -2.50372,5.461682 c -1.23352,0.707687 -2.24754,1.616149 -3.0422,2.725932 -0.29819,0.414423 -0.53789,0.828743 -0.71881,1.243335 0.0562,0.235859 0.21057,0.400892 0.46302,0.49506 0.24541,0.09804 0.44249,0.106696 0.59066,0.02584 0.16849,-0.279491 0.54484,-0.919059 1.12964,-1.919263 0.58296,-0.994267 1.10888,-1.851154 1.57769,-2.570904 z m 3.17292,3.796151 c -0.0799,0.004 -0.15245,0.03824 -0.21704,0.102836 -0.0827,0.165365 -0.43409,0.66146 -1.05419,1.488281 -0.62012,0.826822 -0.93019,1.351856 -0.93019,1.575098 0,0.06615 0.0992,0.169499 0.29766,0.310059 0.16537,0.115758 0.26873,0.181904 0.31006,0.198437 0.32247,-0.0083 0.80615,-0.359669 1.45107,-1.054199 0.64495,-0.69453 0.99635,-1.149284 1.0542,-1.364258 0.10749,-0.214974 0.0165,-0.496095 -0.27285,-0.843359 -0.25011,-0.28422 -0.46286,-0.421777 -0.63872,-0.412895 z" />
    <g
       id="g28"
       transform="translate(-33.819349,-6.1526347)">
      <path
         style="fill:#f2c902;fill-opacity:1;stroke-width:0.264583"
         d="m 115.34678,62.552612 c -0.3886,0 -0.66972,0.08682 -0.84335,0.260449 -0.11576,0.429947 -0.36795,1.409737 -0.75655,2.939355 -0.38861,1.521353 -0.75655,2.844274 -1.10381,3.96875 1.4304,-1.488277 2.46394,-3.117125 3.10059,-4.886523 0.23978,-0.661457 0.39689,-1.293978 0.47129,-1.897559 -0.1819,-0.264583 -0.4713,-0.392772 -0.86817,-0.384472 z"
         id="path26" />
      <path
         style="font-size:25.4px;font-family:Kristi;-inkscape-font-specification:Kristi;fill:#f2c902;fill-opacity:1;stroke-width:0.264583"
         d="m 118.29571,62.285088 q -0.062,-0.0248 -0.31006,-0.198437 -0.29766,-0.21084 -0.29766,-0.310059 0,-0.334863 0.93018,-1.575097 0.93017,-1.240235 1.0542,-1.488282 0.31006,-0.310058 0.85576,0.310059 0.43408,0.520898 0.27285,0.843359 -0.0868,0.322461 -1.0542,1.364258 -0.96738,1.041797 -1.45107,1.054199 z"
         id="path27" />
      <path
         style="font-size:25.4px;font-family:Kristi;-inkscape-font-specification:Kristi;fill:#f2c902;fill-opacity:1;stroke-width:0.264583"
         d="m 115.24434,74.590357 q -0.062,-0.0248 -0.31006,-0.198437 -0.29766,-0.21084 -0.29766,-0.310059 0,-0.334863 0.93018,-1.575097 0.93017,-1.240235 1.0542,-1.488282 0.31006,-0.310058 0.85576,0.310059 0.43408,0.520898 0.27285,0.843359 -0.0868,0.322461 -1.0542,1.364258 -0.96738,1.041797 -1.45107,1.054199 z"
         id="path28" />
    </g>
  </g>
</svg>
