<?xml version="1.0" encoding="UTF-8" standalone="no"?>
<!-- Created with Inkscape (http://www.inkscape.org/) -->

<svg
   width="46.021557mm"
   height="28.440666mm"
   viewBox="0 0 46.021557 28.440666"
   version="1.1"
   id="svg1"
   inkscape:version="1.3.2 (091e20ef0f, 2023-11-25, custom)"
   sodipodi:docname="logo.svg"
   inkscape:export-filename="logo.png"
   inkscape:export-xdpi="96"
   inkscape:export-ydpi="96"
   xmlns:inkscape="http://www.inkscape.org/namespaces/inkscape"
   xmlns:sodipodi="http://sodipodi.sourceforge.net/DTD/sodipodi-0.dtd"
   xmlns="http://www.w3.org/2000/svg"
   xmlns:svg="http://www.w3.org/2000/svg">
  <sodipodi:namedview
     id="namedview1"
     pagecolor="#505050"
     bordercolor="#eeeeee"
     borderopacity="1"
     inkscape:showpageshadow="0"
     inkscape:pageopacity="0"
     inkscape:pagecheckerboard="0"
     inkscape:deskcolor="#505050"
     inkscape:document-units="mm"
     inkscape:zoom="4.4145367"
     inkscape:cx="99.21766"
     inkscape:cy="29.901213"
     inkscape:window-width="1920"
     inkscape:window-height="1056"
     inkscape:window-x="0"
     inkscape:window-y="0"
     inkscape:window-maximized="1"
     inkscape:current-layer="layer1" />
  <defs
     id="defs1" />
  <g
     inkscape:label="Layer 1"
     inkscape:groupmode="layer"
     id="layer1"
     transform="translate(-82.814583,-115.6229)">
    <path
       style="fill:#f2c902;fill-opacity:1;stroke-width:0.264583"
       d="m 107.69467,134.81141 4.1918,-4.10518 -6.67245,-0.50849 9.93429,-12.66279 -8.80566,0.5209 -8.172965,16.70595 6.077155,-1.62471 -4.2292,6.08956 z"
       id="path21" />
    <path
       id="path20"
       style="font-size:25.4px;font-family:Kristi;-inkscape-font-specification:Kristi;fill:#f2c902;fill-opacity:1;stroke-width:0.264583"
       d="m 126.21926,115.78622 -0.47129,0.062 c 0,0.008 -0.008,0.0124 -0.0248,0.0124 -0.1819,0.0496 -0.34314,0.24391 -0.4837,0.58291 -0.14056,0.33073 -0.50849,1.73219 -1.1038,4.20439 l -1.42627,5.8167 c -0.90951,3.62148 -1.88516,6.06061 -2.92696,7.31738 -0.58704,0.678 -1.19889,1.09554 -1.83554,1.25264 0,0.008 -0.0538,0.0248 -0.16123,0.0496 -0.10749,0.0248 -0.1571,0.0537 -0.14883,0.0868 0,0.0413 0.0248,0.0992 0.0744,0.17363 0.0413,0.0744 0.24805,0.11162 0.62012,0.11162 0.36381,0 0.87644,-0.21911 1.53789,-0.65732 0.65319,-0.42995 1.22783,-1.0294 1.72393,-1.79834 0.84335,-1.30638 1.63711,-3.48506 2.38125,-6.53604 0.30592,-0.008 0.68626,-0.21084 1.14101,-0.60771 0.81856,-0.7276 1.64125,-1.87276 2.46807,-3.43545 0.83509,-1.57096 1.25263,-2.93522 1.25263,-4.09277 0,-0.25632 -0.0703,-0.4837 -0.21084,-0.68213 -0.32246,-0.42995 -0.90123,-0.64493 -1.73632,-0.64493 -0.19017,0 -0.33487,0.008 -0.43409,0.0248 0,-0.0827 0.0331,-0.26045 0.0992,-0.53331 0.0661,-0.28112 0.0951,-0.44235 0.0868,-0.48369 -0.0331,-0.14882 -0.17363,-0.22324 -0.42168,-0.22324 z m 0.64492,2.28203 c 0.39687,-0.008 0.68627,0.11989 0.86817,0.38447 -0.0744,0.60358 -0.23151,1.2361 -0.47129,1.89756 -0.63666,1.7694 -1.67018,3.39824 -3.10059,4.88652 0.34727,-1.12447 0.7152,-2.44739 1.10381,-3.96875 0.38861,-1.52962 0.64078,-2.5094 0.75654,-2.93935 0.17363,-0.17363 0.45475,-0.26045 0.84336,-0.26045 z" />
    <path
       id="path17"
       style="font-size:25.4px;font-family:Kristi;-inkscape-font-specification:Kristi;fill:#f2c902;fill-opacity:1;stroke-width:0.264583"
       d="m 119.69563,115.62499 c -0.25633,0 -0.41756,0.14883 -0.48369,0.44648 l -0.79375,3.41064 -2.76573,4.58887 c -0.8599,0.0661 -1.96784,0.16537 -3.32383,0.29766 -0.1819,0.0331 -0.27285,0.11162 -0.27285,0.23564 0,0.27286 0.1447,0.47129 0.43408,0.59532 0.28939,0.12402 1.06661,0.19017 2.33165,0.19843 l -2.76573,4.34082 c -0.0413,0.0496 -0.1819,0.25218 -0.42168,0.60772 -0.23978,0.35553 -0.35966,0.60358 -0.35966,0.74414 0.0165,0.13229 0.12815,0.19844 0.33486,0.19844 0.19844,0.008 0.3514,-0.0372 0.45889,-0.13643 1.39733,-1.62884 2.75332,-3.54707 4.06796,-5.75469 0.39688,-0.0165 0.97565,-0.0703 1.73633,-0.16123 -0.47956,1.86862 -0.76894,3.15847 -0.86816,3.86953 -0.091,0.71107 -0.13643,1.4056 -0.13643,2.0836 0,0.68626 0.18604,1.19062 0.55811,1.51308 0.1571,0.1323 0.33487,0.19844 0.5333,0.19844 0.3638,0 0.5457,-0.26045 0.5457,-0.78135 -0.008,-0.17363 -0.1323,-0.35553 -0.37207,-0.5457 -0.23979,-0.23151 -0.36794,-0.41341 -0.38447,-0.5457 0,-0.50437 0.44648,-2.48048 1.33945,-5.92832 0.98392,-0.091 1.81488,-0.14469 2.49287,-0.16123 0.678,-0.0248 1.02113,-0.12403 1.0294,-0.29766 -0.008,-0.25632 -0.0662,-0.45889 -0.17364,-0.60772 -0.10748,-0.15709 -0.20257,-0.23978 -0.28525,-0.24804 -1.13275,0 -2.04226,0.0165 -2.72851,0.0496 0.66145,-2.42259 1.12861,-4.24161 1.40146,-5.45703 0.27285,-1.21543 0.40928,-1.85209 0.40928,-1.90996 0,-0.39688 -0.28939,-0.66146 -0.86817,-0.79376 -0.19017,-0.0413 -0.41341,-0.0579 -0.66972,-0.0496 z m -1.22525,6.32416 c 0.0476,-0.001 0.0757,0.0359 0.0842,0.11265 -0.0744,0.5209 -0.19017,1.13275 -0.34726,1.83555 l -1.26504,0.0868 0.24804,-0.45889 c 0.1819,-0.33073 0.44649,-0.71107 0.79375,-1.14101 0.23333,-0.28758 0.39539,-0.43241 0.48628,-0.43512 z" />
    <path
       style="font-size:25.4px;font-family:Kristi;-inkscape-font-specification:Kristi;fill:#f07126;fill-opacity:1;stroke-width:0.264583"
       d="m 113.80886,118.63876 -5.30821,0.19844 q -0.33486,0 -0.71933,-0.0496 -1.43867,-0.21084 -1.43867,-0.73174 0,-0.18604 0.37207,-0.21084 h 0.0248 l 2.46807,-0.19844 q 1.95957,-0.11162 3.50986,-0.11162 h 2.43086 q 0.40928,0 0.62012,0.5333 0.062,0.16123 0.0496,0.32246 -0.0124,0.14883 -0.5085,0.19844 -0.14883,0.21084 -0.38447,0.47129 l -9.71104,11.1373 q 0.71934,-0.0496 2.55489,-0.21084 1.82314,-0.16123 2.24482,-0.17363 1.66191,-0.0496 1.94717,0.5209 0.062,0.0992 0.062,0.18603 0.0124,0.14883 -0.13643,0.18604 -0.14882,0.0248 -0.24804,0.0372 l -2.0836,0.28525 q -1.90996,0.18604 -3.2122,0.23565 -1.30225,0.0372 -2.0712,0.0744 -0.27285,0.29765 -0.70693,0.29765 -0.43408,0 -0.47129,-0.31006 -0.0496,-0.31005 0.0372,-0.52089 0.0868,-0.22325 0.64492,-0.85577 z"
       id="path16" />
    <path
       style="font-size:25.4px;font-family:Kristi;-inkscape-font-specification:Kristi;fill:#e6173e;fill-opacity:1;stroke-width:0.264583"
       d="m 103.16784,133.90604 q -0.0496,0.0124 -0.32246,0.13643 -2.852545,1.22783 -3.683505,1.22783 -0.45889,0 -0.71933,-0.18604 -0.26045,-0.19843 -0.27286,-0.32246 0.0248,-0.16123 0.47129,-0.29765 0.48369,-0.16123 1.897565,-0.66973 2.53008,-0.91777 2.92695,-0.91777 0.42168,0 0.78135,0.26045 0.37207,0.26044 0.37207,0.52089 0,0.24805 -0.39687,0.74414 -0.38448,0.4961 -2.05879,2.34405 -1.67432,1.84795 -2.14561,2.48047 l 7.57783,-4.36563 q 0.0868,-0.0496 0.0992,-0.0496 0.19844,0.062 0.21084,0.38447 0.0248,0.33487 -0.0496,0.38448 -0.29765,0.19843 -0.58291,0.35966 l -1.68672,1.0542 q -3.7207,2.30684 -5.655465,3.74551 -1.92237,1.43867 -3.54707,3.19981 -0.13643,0.12402 -0.26045,0.12402 -0.35967,0 -0.60772,-0.37207 -0.24804,-0.37207 -0.24804,-0.5457 0,-0.16123 0.062,-0.24805 1.01699,-1.24023 4.31601,-4.98574 z"
       id="path15" />
    <path
       style="font-size:25.4px;font-family:Kristi;-inkscape-font-specification:Kristi;fill:#f2c902;fill-opacity:1;stroke-width:0.264583"
       d="m 100.46413,131.83485 q -0.45889,1.28984 -1.823155,2.6293 -1.6123,1.5875 -2.70371,1.5875 -1.47588,0 -1.84795,-1.67432 -0.11161,-0.5085 -0.11161,-1.10381 -0.0124,-1.92236 0.73173,-4.45244 0.93018,-3.1998 1.76113,-3.1998 0.40928,0 0.59532,0.19843 0.19843,0.18604 0.19843,0.27285 0,0.39688 -0.80615,1.95957 -0.80615,1.5503 -1.00459,2.25723 -0.18603,0.69453 -0.28525,1.82315 -0.0868,1.11621 -0.0868,1.43867 0,1.0914 0.26045,1.36426 0.27285,0.27285 0.65732,0.28525 1.09141,0 2.6045,-1.89756 0.73173,-0.93018 1.14101,-1.71152 0.18604,-0.29766 0.384475,-0.29766 0.33487,0.0496 0.37208,0.33486 0,0.0372 -0.0372,0.18604 z"
       id="path14" />
    <path
       style="font-size:25.4px;font-family:Kristi;-inkscape-font-specification:Kristi;fill:#f2c902;fill-opacity:1;stroke-width:0.264583"
       d="m 97.499965,124.04618 q -0.062,-0.0248 -0.31006,-0.19844 -0.29766,-0.21084 -0.29766,-0.31006 0,-0.33486 0.93018,-1.5751 0.93017,-1.24023 1.0542,-1.48828 0.31006,-0.31006 0.85576,0.31006 0.434085,0.5209 0.272855,0.84336 -0.0868,0.32246 -1.054205,1.36426 -0.96738,1.0418 -1.45107,1.0542 z"
       id="path13" />
    <path
       id="path12"
       style="font-size:25.4px;font-family:Kristi;-inkscape-font-specification:Kristi;fill:#f2c902;fill-opacity:1;stroke-width:0.264583"
       d="m 91.397885,121.16876 -0.47129,0.062 c 0,0.008 -0.008,0.0124 -0.0248,0.0124 -0.1819,0.0496 -0.34313,0.24391 -0.48369,0.58291 -0.14056,0.33073 -0.5085,1.73219 -1.10381,4.20439 l -1.42627,5.8167 c -0.9095,3.62148 -1.885155,6.06061 -2.926951,7.31738 -0.587044,0.678 -1.198894,1.09554 -1.835547,1.25264 0,0.008 -0.05374,0.0248 -0.16123,0.0496 -0.107486,0.0248 -0.157095,0.0537 -0.148829,0.0868 0,0.0413 0.02481,0.0992 0.07442,0.17363 0.04134,0.0744 0.248046,0.11162 0.620117,0.11162 0.363801,0 0.876433,-0.21911 1.53789,-0.65732 0.65319,-0.42995 1.227833,-1.0294 1.723925,-1.79834 0.84336,-1.30638 1.63711,-3.48506 2.38125,-6.53604 0.30593,-0.008 0.68627,-0.21084 1.141015,-0.60771 0.81855,-0.7276 1.64124,-1.87276 2.46806,-3.43545 0.8351,-1.57096 1.25264,-2.93522 1.25264,-4.09277 0,-0.25632 -0.0703,-0.48369 -0.21084,-0.68213 -0.32246,-0.42995 -0.90124,-0.64492 -1.73633,-0.64492 -0.19017,0 -0.33486,0.008 -0.43408,0.0248 0,-0.0827 0.0331,-0.26045 0.0992,-0.5333 0.0662,-0.28113 0.0951,-0.44236 0.0868,-0.4837 -0.0331,-0.14882 -0.17364,-0.22324 -0.42168,-0.22324 z m 0.64492,2.28203 c 0.39687,-0.008 0.68626,0.11989 0.86816,0.38447 -0.0744,0.60358 -0.23151,1.2361 -0.47129,1.89756 -0.63665,1.7694 -1.67018,3.39824 -3.10058,4.88652 0.34726,-1.12448 0.7152,-2.44739 1.10381,-3.96875 0.3886,-1.52962 0.64078,-2.5094 0.75654,-2.93935 0.17363,-0.17364 0.45475,-0.26045 0.84336,-0.26045 z" />
    <path
       id="path23"
       style="fill:#fadc7a;fill-opacity:1;stroke-width:0.264583"
       d="m 109.26049,119.05646 c -0.32247,0.008 -0.80617,0.35967 -1.45109,1.0542 -0.64493,0.69453 -0.99631,1.14928 -1.05419,1.36426 -0.10748,0.21497 -0.0165,0.49609 0.27285,0.84336 0.3638,0.41341 0.64906,0.51676 0.85577,0.31005 0.0827,-0.16536 0.43407,-0.66145 1.05419,-1.48828 0.62012,-0.82682 0.93018,-1.35185 0.93018,-1.57509 0,-0.0661 -0.0992,-0.1695 -0.29766,-0.31006 -0.16538,-0.11576 -0.26873,-0.18191 -0.31005,-0.19844 z m -2.95331,3.51141 c -0.10346,0.006 -0.1972,0.0287 -0.28061,0.0677 -0.25535,0.36476 -0.82646,1.19966 -1.71308,2.50528 -0.88382,1.29784 -1.68086,2.41653 -2.39055,3.35535 1.85197,-0.91171 3.37905,-2.09075 4.5806,-3.53725 0.45085,-0.54015 0.81421,-1.08158 1.08986,-1.62368 -0.0808,-0.31073 -0.30929,-0.52987 -0.68523,-0.65732 -0.18267,-0.0662 -0.34761,-0.10298 -0.49455,-0.11007 -0.0367,-0.002 -0.072,-0.002 -0.10645,0 z m -2.50372,5.46169 c -1.23352,0.70768 -2.24754,1.61614 -3.0422,2.72593 -0.29819,0.41442 -0.53789,0.82874 -0.71881,1.24333 0.0562,0.23586 0.21057,0.40089 0.46302,0.49506 0.24541,0.098 0.44249,0.1067 0.59066,0.0258 0.16849,-0.27949 0.54484,-0.91906 1.12964,-1.91926 0.58296,-0.99427 1.10888,-1.85116 1.57769,-2.5709 z m 3.17292,3.79615 c -0.0799,0.004 -0.15245,0.0382 -0.21704,0.10283 -0.0827,0.16537 -0.43409,0.66146 -1.05419,1.48828 -0.62012,0.82682 -0.93019,1.35186 -0.93019,1.5751 0,0.0661 0.0992,0.1695 0.29766,0.31006 0.16537,0.11576 0.26873,0.1819 0.31006,0.19844 0.32247,-0.008 0.80615,-0.35967 1.45107,-1.0542 0.64495,-0.69453 0.99635,-1.14929 1.0542,-1.36426 0.10749,-0.21497 0.0165,-0.4961 -0.27285,-0.84336 -0.25011,-0.28422 -0.46286,-0.42178 -0.63872,-0.41289 z" />
  </g>
</svg>
